#!OML:ASF H:\Terrain\Patient Classification 1\Walking\liu\liu.ASF
:FULLY-SPECIFIED
:DEGREES
146
root 8.625040 15.942100 -16.340500 6.333870 8.397660 3.774280
lowerback -3.351190 -1.665025 -2.240345
upperback -0.597935 -2.089810 1.084815
thorax 1.499120 -1.069400 2.183040
lowerneck -9.574800 -2.921915 -6.942750
upperneck 8.720700 -3.454620 6.472950
head 4.817280 -1.396320 2.938680
rclavicle 0.000000 0.000000
rhumerus -24.140499 2.023670 -40.790951
rradius 14.508150
rwrist -7.739900
rhand -14.341600 -11.336800
rfingers 3.562510
rthumb -1.022850 -26.321751
lclavicle 0.000000 0.000000
lhumerus -17.722300 -0.529890 45.428501
lradius 9.443800
lwrist -5.633650
lhand -5.356100 -11.279400
lfingers 3.562510
lthumb 7.648900 3.427725
rfemur -20.567051 1.043535 7.731000
rtibia 19.727200
rfoot -3.204795 -1.797685
rtoes -8.244700
lfemur 13.900250 2.655305 -9.242400
ltibia 0.000000
lfoot 3.382560 -0.597380
ltoes -8.575400
147
root 8.605380 15.978100 -16.180500 6.398540 8.715530 3.501460
lowerback -3.231655 -1.697825 -2.048845
upperback -0.673935 -2.152485 1.116490
thorax 1.349005 -1.094190 2.110900
lowerneck -9.657250 -2.932630 -6.882600
upperneck 8.803150 -3.470775 6.414900
head 4.858795 -1.403015 2.906480
rclavicle -0.000000 0.000000
rhumerus -24.131149 2.076735 -40.791801
rradius 14.334650
rwrist -7.259500
rhand -13.946000 -11.301700
rfingers 3.562510
rthumb -0.640795 -26.289650
lclavicle -0.000000 0.000000
lhumerus -18.016251 0.204399 45.061798
lradius 9.047600
lwrist -5.528300
lhand -5.273400 -11.367250
lfingers 3.562510
lthumb 7.728500 3.333755
rfemur -20.291401 0.879695 8.015200
rtibia 19.809349
rfoot -3.472335 -1.610625
rtoes -8.420700
lfemur 13.963450 2.663690 -8.977500
ltibia 0.000000
lfoot 4.373265 -0.258301
ltoes -8.377250
148
root 8.578980 16.014099 -16.026199 6.404510 9.009990 2.868840
lowerback -3.156630 -1.679230 -1.721225
upperback -0.674580 -2.154305 1.206015
thorax 1.289775 -1.091690 2.024145
lowerneck -9.764850 -2.976580 -6.892000
upperneck 8.707250 -3.518320 6.466900
head 4.854950 -1.416385 2.916430
rclavicle -0.000000 -0.000000
rhumerus -24.099800 2.068570 -40.705700
rradius 14.301250
rwrist -6.883700
rhand -13.794800 -11.454900
rfingers 3.562510
rthumb -0.494756 -26.443649
lclavicle -0.000000 -0.000000
lhumerus -18.165300 0.617975 44.813000
lradius 8.742650
lwrist -5.458900
lhand -5.166000 -11.287500
lfingers 3.562510
lthumb 7.831950 3.405450
rfemur -20.003349 0.804445 8.481700
rtibia 19.826750
rfoot -3.657150 -1.474935
rtoes -8.353150
lfemur 12.921000 2.783130 -8.461400
ltibia 2.112500
lfoot 4.551820 -0.078122
ltoes -7.532850
149
root 8.549080 16.054501 -15.873400 6.497650 9.120450 2.350450
lowerback -3.201585 -1.647490 -1.468670
upperback -0.623965 -2.129625 1.268915
thorax 1.351435 -1.079415 1.946015
lowerneck -9.984950 -3.024405 -6.865800
upperneck 8.568750 -3.565590 6.531300
head 4.855955 -1.421980 2.923070
rclavicle 0.000000 -0.000000
rhumerus -23.872450 1.815315 -40.407700
rradius 14.297800
rwrist -6.284800
rhand -13.223600 -10.963450
rfingers 3.562510
rthumb 0.056935 -25.953300
lclavicle 0.000000 -0.000000
lhumerus -18.320450 1.079875 44.468151
lradius 8.684750
lwrist -5.815250
lhand -3.919810 -10.420150
lfingers 3.562510
lthumb 9.031550 4.170445
rfemur -19.721701 0.820085 8.863150
rtibia 19.752850
rfoot -3.819275 -1.352475
rtoes -7.757800
lfemur 10.865800 3.081280 -7.986400
ltibia 6.137000
lfoot 3.931610 -0.203154
ltoes -7.274950
150
root 8.517350 16.101000 -15.726400 6.724050 9.256230 1.981730
lowerback -3.209085 -1.672590 -1.325765
upperback -0.654270 -2.173660 1.320315
thorax 1.321775 -1.099415 1.915420
lowerneck -10.062800 -3.007875 -6.830050
upperneck 8.515600 -3.553330 6.598150
head 4.851405 -1.404175 2.941845
rclavicle 0.000000 -0.000000
rhumerus -23.674650 1.898075 -40.444901
rradius 14.231650
rwrist -6.409300
rhand -13.220150 -8.829350
rfingers 3.562510
rthumb 0.060222 -23.819201
lclavicle 0.000000 -0.000000
lhumerus -18.557699 1.678085 44.042999
lradius 8.551200
lwrist -6.379300
lhand -2.240925 -9.458400
lfingers 3.562510
lthumb 10.645600 4.966840
rfemur -19.461300 0.757600 9.189950
rtibia 19.598551
rfoot -4.101350 -1.222525
rtoes -7.353400
lfemur 9.460200 3.276370 -7.670500
ltibia 8.747900
lfoot 3.801990 -0.082189
ltoes -6.726150
151
root 8.486580 16.143700 -15.584800 6.854700 9.412000 1.533660
lowerback -3.093400 -1.678595 -1.151800
upperback -0.710540 -2.195725 1.384050
thorax 1.193145 -1.106755 1.890380
lowerneck -10.056200 -3.005310 -6.769250
upperneck 8.542250 -3.570600 6.592450
head 4.859550 -1.408880 2.927505
rclavicle 0.000000 0.000000
rhumerus -23.537951 1.965910 -40.468300
rradius 14.235750
rwrist -6.512150
rhand -14.009500 -11.399550
rfingers 3.562510
rthumb -0.702145 -26.387100
lclavicle 0.000000 0.000000
lhumerus -18.732901 1.901165 43.808250
lradius 8.342750
lwrist -6.643550
lhand -1.512325 -9.273850
lfingers 3.562510
lthumb 11.345150 5.069150
rfemur -19.139799 0.684380 9.569950
rtibia 19.390051
rfoot -4.375225 -1.082265
rtoes -7.209700
lfemur 8.291500 3.430595 -7.331450
ltibia 10.942950
lfoot 3.773515 0.205156
ltoes -5.578800
152
root 8.457140 16.178801 -15.445400 6.938490 9.545760 1.135280
lowerback -2.983695 -1.627840 -0.978945
upperback -0.743385 -2.140965 1.451025
thorax 1.086050 -1.076725 1.875255
lowerneck -10.102700 -3.091050 -6.831250
upperneck 8.493700 -3.670985 6.635250
head 4.870925 -1.453405 2.936130
rclavicle 0.000000 -0.000000
rhumerus -23.626301 2.524770 -40.986252
rradius 14.435350
rwrist -8.294050
rhand -15.774850 -10.309500
rfingers 3.562510
rthumb -2.406980 -25.272150
lclavicle 0.000000 -0.000000
lhumerus -18.888451 1.597750 43.918049
lradius 8.345500
lwrist -6.428000
lhand -1.472530 -9.525950
lfingers 3.562510
lthumb 11.383350 4.812355
rfemur -18.779150 0.730555 9.874550
rtibia 19.128349
rfoot -4.604525 -1.011460
rtoes -6.833350
lfemur 7.204300 3.553545 -7.047750
ltibia 12.915450
lfoot 4.153265 0.596170
ltoes -5.350050
